<svg width="1440" height="4000" viewBox="0 0 1440 4000" fill="none" xmlns="http://www.w3.org/2000/svg">
<g clip-path="url(#clip0_771_3477)">
<rect width="1440" height="4000" fill="#212121"/>
<g clip-path="url(#clip1_771_3477)">
<path d="M1151.43 0C1151.43 0 1229.63 221.423 1255.36 330.646C1294.58 510.464 1296.11 707.369 1263.49 919.749C1246.74 1070.55 1241.59 1226.87 1246.07 1387.77C1252.57 1570.84 1297.92 1816.19 1352.91 2077C1406.68 2304.84 1419.6 2512.61 1413.29 2763.9V4021.28H1413.26V4076H1440V0H1151.44H1151.43Z" fill="white"/>
<path d="M166.073 3741.86C134.145 3541.78 158.836 3270.2 166.073 3238.91C173.309 3207.62 200.911 2938.54 195.104 2689.39C189.296 2440.24 75.4912 1948.94 75.4912 1948.94C42.5864 1813.04 25.3013 1654.54 27.877 1462.28V0H0V4076H229.794C229.794 4076 196.727 3933.97 166.073 3741.86Z" fill="white"/>
</g>
</g>
<defs>
<clipPath id="clip0_771_3477">
<rect width="1440" height="4000" fill="white"/>
</clipPath>
<clipPath id="clip1_771_3477">
<rect width="1440" height="4076" fill="white"/>
</clipPath>
</defs>
</svg>
